# xmcd
#
# Track frame offsets:
#   150
#   11924
#   21020
#   35535
#   46295
#   58551
#   68074
#   77108
#   88933
#
# Disc length: 1339 seconds
#
# Revision: 0
# Processed by: cddbd v1.5.2PL0 Copyright (c) Steve Scherf et al.
# Submitted via: Click'N Design 3D 5.1
#
DISCID=6f053909
DTITLE=Bluegrass Gold - Various Artists
DYEAR=1976
DGENRE=Country
TTITLE0=1: Orange Blossom Special
TTITLE1=2: Wabash Cannonball
TTITLE2=3: Tennessee Waltz
TTITLE3=4: Foggy Mountain Breakdown
TTITLE4=5: Rollin' In My Sweet Baby's Arms
TTITLE5=6: Duelling Banjos
TTITLE6=7: Daddy Sang Bass
TTITLE7=8: Salty Dawg
TTITLE8=9: Rocky Top
EXTD=
EXTT0=
EXTT1=
EXTT2=
EXTT3=
EXTT4=
EXTT5=
EXTT6=
EXTT7=
EXTT8=
PLAYORDER=
